<svg width="27" height="27" viewBox="0 0 27 27" fill="none" xmlns="http://www.w3.org/2000/svg">
<g clip-path="url(#clip0_119_51)">
<path opacity="0.948" fill-rule="evenodd" clip-rule="evenodd" d="M26.9736 2.39935C26.9736 2.94427 26.9736 3.4892 26.9736 4.03412C26.4561 5.54712 25.3926 6.37326 23.7832 6.51263C21.8161 6.29458 20.7175 5.20472 20.4873 3.2431C20.5691 1.78684 21.2723 0.75852 22.5967 0.158139C24.2048 -0.334739 25.5144 0.0783475 26.5254 1.3974C26.7058 1.7226 26.8552 2.05658 26.9736 2.39935ZM23.5986 1.97748C24.4268 1.98845 24.9014 2.40153 25.0225 3.21673C24.8674 4.16387 24.3224 4.55059 23.3877 4.37689C22.5664 3.95398 22.3642 3.32995 22.7812 2.50482C22.9869 2.21373 23.2594 2.03794 23.5986 1.97748Z" fill="#4B4B15"/>
<path opacity="0.953" fill-rule="evenodd" clip-rule="evenodd" d="M9.41309 0.92273C12.1553 0.913939 14.8975 0.92273 17.6396 0.949097C18.3548 1.28047 18.5394 1.79903 18.1934 2.50476C18.0517 2.69955 17.8671 2.83139 17.6396 2.90027C14.7741 2.91368 11.9089 2.94883 9.04395 3.00574C8.04273 3.06087 7.05839 3.21907 6.09082 3.48035C5.2226 3.85634 4.51068 4.42763 3.95508 5.19421C3.41135 6.13811 3.11252 7.15762 3.05859 8.25281C2.88282 11.7508 2.88282 15.2489 3.05859 18.7469C3.12253 19.7705 3.3862 20.7373 3.84961 21.6473C4.9174 23.1526 6.38518 23.9173 8.25293 23.9413C11.4864 24.0926 14.7207 24.1102 17.9561 23.994C18.9573 23.9389 19.9416 23.7807 20.9092 23.5194C22.2738 22.9458 23.179 21.9526 23.625 20.5399C23.817 19.6883 23.94 18.8269 23.9941 17.9559C24.0516 15.0734 24.0867 12.1906 24.0996 9.3075C24.4584 8.63102 24.977 8.46406 25.6553 8.80652C25.8273 8.94321 25.9591 9.11022 26.0508 9.3075C26.086 12.0672 26.086 14.827 26.0508 17.5868C26.0371 18.564 25.9316 19.5308 25.7344 20.4872C25.2877 22.532 24.1539 24.07 22.333 25.1014C21.1636 25.6343 19.9331 25.9332 18.6416 25.9979C15.0195 26.0487 11.3984 26.0311 7.77832 25.9452C5.132 25.7524 3.15446 24.5132 1.8457 22.2274C1.34999 21.0852 1.06874 19.8899 1.00195 18.6415C0.966796 15.2137 0.966796 11.786 1.00195 8.35828C1.05166 6.91283 1.4208 5.55935 2.10938 4.29773C3.46332 2.29752 5.35296 1.21647 7.77832 1.05457C8.33156 1.01221 8.87646 0.968266 9.41309 0.92273Z" fill="#4B4B15"/>
<path opacity="0.941" fill-rule="evenodd" clip-rule="evenodd" d="M19.6437 8.8329C20.2215 8.73065 20.6346 8.94158 20.883 9.46571C20.9571 9.65408 20.9746 9.84746 20.9357 10.0458C20.2542 11.4264 19.5862 12.8151 18.9318 14.2118C17.8681 15.8849 16.3828 16.4211 14.4757 15.8202C13.4729 15.3622 12.7786 14.6152 12.3927 13.579C11.8629 12.9837 11.2212 12.8343 10.4679 13.1308C10.3029 13.243 10.1535 13.3748 10.0197 13.5263C9.29896 14.9676 8.57829 16.4091 7.85757 17.8505C7.45078 18.1928 7.00253 18.2543 6.51284 18.035C6.15156 17.7609 6.00211 17.4005 6.0646 16.954C6.76365 15.5382 7.44919 14.1144 8.12124 12.6825C9.16876 11.1319 10.6014 10.6134 12.4191 11.1268C13.4715 11.5816 14.201 12.3463 14.6076 13.4208C15.0271 13.9298 15.5632 14.1144 16.216 13.9745C16.5277 13.8934 16.7826 13.7264 16.9806 13.4735C17.6797 12.093 18.3652 10.7043 19.0373 9.30751C19.1978 9.09161 19.4 8.93341 19.6437 8.8329Z" fill="#4B4B15"/>
</g>
<defs>
<clipPath id="clip0_119_51">
<rect width="27" height="27" fill="white"/>
</clipPath>
</defs>
</svg>
