<svg width="27" height="27" viewBox="0 0 27 27" fill="none" xmlns="http://www.w3.org/2000/svg">
<path opacity="0.948" fill-rule="evenodd" clip-rule="evenodd" d="M12.05 0.395448C14.1424 0.146498 16.1287 0.489272 18.009 1.42377C18.6386 1.98797 18.6386 2.55048 18.009 3.11127C17.7595 3.2379 17.4958 3.27306 17.218 3.21674C14.0108 1.78954 10.9873 2.10595 8.1477 4.16596C5.70319 6.27428 4.72763 8.9198 5.22094 12.1025C5.36643 13.0823 5.70045 14.0316 6.22289 14.9501C6.73267 15.6357 7.2424 16.3212 7.75219 17.0068C9.6531 19.347 11.5339 21.7025 13.3948 24.0732C15.6448 21.2607 17.8947 18.4482 20.1448 15.6357C21.8184 13.1822 22.17 10.5279 21.1995 7.67279C21.0238 7.295 20.8743 6.90825 20.7512 6.51264C20.8519 5.68202 21.309 5.3568 22.1223 5.53705C22.2682 5.61441 22.4 5.71107 22.5178 5.82709C23.7886 8.24438 24.0698 10.7756 23.3616 13.4208C23.1204 14.2672 22.7864 15.0758 22.3596 15.8466C21.9284 16.498 21.4714 17.1309 20.9885 17.7451C18.7132 20.5383 16.4632 23.3508 14.2385 26.1826C14.0467 26.485 13.7742 26.6081 13.4211 26.5517C13.1154 26.605 12.8606 26.5171 12.6565 26.288C10.1379 23.0968 7.60669 19.9151 5.06273 16.7431C3.21356 14.0346 2.68622 11.0639 3.4807 7.831C4.85735 3.68805 7.7138 1.20954 12.05 0.395448ZM12.9993 6.98725C15.1298 6.94822 16.4745 7.95018 17.0334 9.9931C17.2411 11.52 16.7401 12.7593 15.5305 13.7109C14.0794 14.5341 12.6379 14.5165 11.2063 13.6581C9.52775 12.1038 9.29045 10.3548 10.4944 8.41107C11.1395 7.60076 11.9745 7.12615 12.9993 6.98725Z" fill="#4B4B15"/>
<path opacity="0.947" fill-rule="evenodd" clip-rule="evenodd" d="M12.6825 5.03616C15.2903 4.88514 17.2326 5.93982 18.5096 8.20022C19.5756 10.8339 19.0746 13.1103 17.0067 15.0293C15.1345 16.4565 13.113 16.7025 10.9423 15.7676C8.64952 14.5085 7.60364 12.5661 7.80456 9.94046C8.22079 7.57305 9.56552 5.99983 11.8387 5.22073C12.1269 5.15725 12.4082 5.09572 12.6825 5.03616ZM12.9989 6.98733C11.9742 7.12623 11.1392 7.60084 10.494 8.41116C9.29008 10.3548 9.52739 12.1039 11.2059 13.6582C12.6376 14.5166 14.079 14.5341 15.5301 13.711C16.7397 12.7594 17.2407 11.5201 17.0331 9.99319C16.4741 7.95026 15.1294 6.94831 12.9989 6.98733Z" fill="#F7F1E5"/>
</svg>
