<svg width="26" height="28" viewBox="0 0 26 28" fill="none" xmlns="http://www.w3.org/2000/svg">
<path opacity="0.981" fill-rule="evenodd" clip-rule="evenodd" d="M26 13.3645C26 13.5935 26 13.8225 26 14.0515C25.6355 14.7799 25.0939 14.9648 24.375 14.6064C24.0788 14.2982 23.7825 13.9898 23.4863 13.6816C23.4694 15.0557 23.4525 16.4298 23.4355 17.8039C23.0818 18.5374 22.5486 18.7224 21.8359 18.3589C21.6529 18.2157 21.526 18.0308 21.4551 17.8039C21.4382 15.7075 21.4212 13.6111 21.4043 11.5147C18.8243 8.77667 16.226 6.05485 13.6094 3.3492C13.237 3.10256 12.8646 3.10256 12.4922 3.3492C9.8445 6.05195 7.21231 8.77377 4.5957 11.5147C4.56185 15.2495 4.56185 18.9842 4.5957 22.7191C4.65838 23.7524 5.15775 24.4306 6.09375 24.7538C7.14091 24.83 8.19041 24.8564 9.24219 24.8331C9.23371 21.8558 9.24219 18.8785 9.26758 15.9013C9.3993 15.5351 9.64473 15.2973 10.0039 15.1878C12.0352 15.1526 14.0664 15.1526 16.0977 15.1878C16.4568 15.2973 16.7023 15.5351 16.834 15.9013C16.8594 18.8785 16.8679 21.8558 16.8594 24.8331C17.7905 24.8419 18.7215 24.8331 19.6523 24.8067C20.5335 24.626 21.1006 24.0887 21.3535 23.1947C21.3569 22.8026 21.4416 22.4326 21.6074 22.0849C22.166 21.5211 22.7246 21.5211 23.2832 22.0849C23.6142 23.6102 23.2164 24.9051 22.0898 25.9694C21.4433 26.5347 20.6986 26.8694 19.8555 26.9736C18.4336 27.0088 17.0117 27.0088 15.5898 26.9736C15.2307 26.8641 14.9852 26.6262 14.8535 26.2601C14.8281 23.2829 14.8196 20.3056 14.8281 17.3283C13.6432 17.3283 12.4583 17.3283 11.2734 17.3283C11.2819 20.3056 11.2734 23.2829 11.248 26.2601C11.1163 26.6262 10.8709 26.8641 10.5117 26.9736C9.05597 27.0088 7.60028 27.0088 6.14453 26.9736C4.27778 26.669 3.10135 25.5679 2.61523 23.6704C2.54845 20.3427 2.5146 17.0131 2.51367 13.6816C2.21745 13.9898 1.92122 14.2982 1.625 14.6064C0.906125 14.9648 0.36446 14.7799 0 14.0515C0 13.8225 0 13.5935 0 13.3645C0.0707036 13.2707 0.129948 13.165 0.177734 13.0473C3.79167 9.2861 7.40558 5.5249 11.0195 1.76368C12.4019 0.728119 13.773 0.745736 15.1328 1.81653C18.696 5.56013 22.2591 9.30376 25.8223 13.0473C25.8701 13.165 25.9293 13.2707 26 13.3645Z" fill="#4C4B16"/>
</svg>
