<svg width="27" height="27" viewBox="0 0 27 27" fill="none" xmlns="http://www.w3.org/2000/svg">
<g clip-path="url(#clip0_119_58)">
<path opacity="0.958" fill-rule="evenodd" clip-rule="evenodd" d="M3.50684 0.395471C10.2247 0.369387 16.9395 0.395754 23.6514 0.474573C24.2195 0.70875 24.6326 1.10426 24.8906 1.6611C25.4364 3.87952 25.9989 6.09437 26.5781 8.30563C26.8452 10.9272 25.7993 12.8168 23.4404 13.9746C21.0763 14.746 19.1076 14.1748 17.5342 12.2607C15.9452 14.2228 13.9589 14.7765 11.5752 13.9218C10.756 13.5333 10.0705 12.9796 9.51855 12.2607C7.96147 14.1507 6.01029 14.7308 3.66504 14.0009C3.60352 17.5692 3.59473 21.1375 3.63867 24.706C5.55963 24.7585 7.48443 24.7762 9.41309 24.7588C9.40428 22.3329 9.41309 19.9071 9.43945 17.4814C9.58073 17.0941 9.85315 16.8568 10.2568 16.7695C12.4189 16.7343 14.5811 16.7343 16.7432 16.7695C17.168 16.8603 17.4405 17.1152 17.5605 17.5341C17.5869 19.9423 17.5957 22.3505 17.5869 24.7588C19.5156 24.7762 21.4404 24.7585 23.3613 24.706C23.3789 22.0341 23.3965 19.3623 23.4141 16.6904C23.5331 16.1761 23.8583 15.8948 24.3896 15.8466C24.8566 15.8658 25.1642 16.0944 25.3125 16.5322C25.3477 19.3096 25.3477 22.0869 25.3125 24.8642C25.1578 25.6576 24.7096 26.2113 23.9678 26.5254C17.0449 26.6129 10.1191 26.6306 3.19043 26.5781C2.37587 26.3085 1.8749 25.7547 1.6875 24.917C1.66992 20.8212 1.65234 16.7256 1.63477 12.6298C1.0465 11.8575 0.64221 10.9962 0.421875 10.0459C0.386719 9.44822 0.386719 8.85053 0.421875 8.25289C0.991649 6.09685 1.53657 3.93473 2.05664 1.76656C2.34675 1.09835 2.83015 0.641324 3.50684 0.395471ZM3.98145 2.24117C5.51074 2.24117 7.04004 2.24117 8.56934 2.24117C8.59449 4.84477 8.56812 7.44632 8.49023 10.0459C7.90752 11.7349 6.721 12.5172 4.93066 12.3925C3.43427 12.0563 2.54658 11.1335 2.26758 9.62399C2.22908 9.25232 2.24665 8.88317 2.32031 8.51657C2.85049 6.41315 3.4042 4.32132 3.98145 2.24117ZM10.5205 2.24117C12.542 2.24117 14.5635 2.24117 16.585 2.24117C16.5938 4.70218 16.585 7.16314 16.5586 9.62399C16.399 10.8935 15.7311 11.7724 14.5547 12.2607C12.6318 12.7055 11.331 12.0024 10.6523 10.1513C10.6115 9.95901 10.5764 9.76563 10.5469 9.57125C10.5205 7.12796 10.5117 4.6846 10.5205 2.24117ZM18.4834 2.24117C19.9952 2.23239 21.5069 2.24117 23.0186 2.26754C23.6088 4.35579 24.1625 6.45639 24.6797 8.5693C24.8992 10.2661 24.24 11.4878 22.7021 12.2343C20.9119 12.7232 19.5847 12.1519 18.7207 10.5205C18.626 10.2999 18.5557 10.0714 18.5098 9.83492C18.4834 7.30373 18.4746 4.77249 18.4834 2.24117ZM11.3643 18.6943C12.7881 18.6943 14.2119 18.6943 15.6357 18.6943C15.6357 20.7158 15.6357 22.7373 15.6357 24.7588C14.2119 24.7588 12.7881 24.7588 11.3643 24.7588C11.3643 22.7373 11.3643 20.7158 11.3643 18.6943Z" fill="#4B4B15"/>
</g>
<defs>
<clipPath id="clip0_119_58">
<rect width="27" height="27" fill="white"/>
</clipPath>
</defs>
</svg>
