<svg width="27" height="27" viewBox="0 0 27 27" fill="none" xmlns="http://www.w3.org/2000/svg">
<g clip-path="url(#clip0_174_267)">
<path opacity="0.974" fill-rule="evenodd" clip-rule="evenodd" d="M9.14942 -0.0263672C9.501 -0.0263672 9.85252 -0.0263672 10.2041 -0.0263672C11.3107 0.253748 12.049 0.939294 12.4189 2.03027C13.9676 2.05876 15.5145 2.1027 17.0596 2.16211C18.2204 2.53178 18.9147 3.31401 19.1426 4.50879C19.1778 5.98535 19.1778 7.46191 19.1426 8.93848C18.8705 9.56871 18.4047 9.77089 17.7451 9.54492C17.5401 9.42775 17.3907 9.26079 17.2969 9.04395C17.2284 7.60509 17.1932 6.1637 17.1914 4.71973C17.0729 4.27754 16.7828 4.04023 16.3213 4.00781C15.0558 3.98145 13.7901 3.97266 12.5244 3.98145C12.5244 10.292 12.5244 16.6025 12.5244 22.9131C13.8781 22.9219 15.2315 22.9131 16.585 22.8867C16.8796 22.7503 17.0818 22.5306 17.1914 22.2275C17.209 20.8037 17.2266 19.3799 17.2441 17.9561C17.5306 17.2195 18.0316 17.0173 18.7471 17.3496C18.9517 17.504 19.0836 17.7061 19.1426 17.9561C19.1778 19.4151 19.1778 20.874 19.1426 22.333C18.9297 23.671 18.165 24.506 16.8486 24.8379C15.3718 24.8467 13.8952 24.8731 12.4189 24.917C12.0542 25.985 11.3335 26.6706 10.2568 26.9736C9.87014 26.9736 9.48338 26.9736 9.09668 26.9736C7.24718 26.3776 5.40148 25.7536 3.55957 25.1016C2.70526 24.6161 2.20428 23.8866 2.05664 22.9131C2.02148 16.6201 2.02148 10.3271 2.05664 4.03418C2.20428 3.06063 2.70526 2.33114 3.55957 1.8457C5.42357 1.20388 7.28684 0.579851 9.14942 -0.0263672ZM9.36035 1.9248C9.94433 1.83428 10.3398 2.06279 10.5469 2.61035C10.5821 9.85252 10.5821 17.0947 10.5469 24.3369C10.3403 24.8929 9.94476 25.1126 9.36035 24.9961C7.77716 24.4684 6.19513 23.941 4.61426 23.4141C4.29829 23.2738 4.09613 23.0365 4.00781 22.7021C3.97266 16.5498 3.97266 10.3975 4.00781 4.24512C4.09613 3.91071 4.29829 3.67341 4.61426 3.5332C6.20615 3.01139 7.78818 2.47525 9.36035 1.9248Z" fill="#4C4B16"/>
<path opacity="0.972" fill-rule="evenodd" clip-rule="evenodd" d="M21.0675 9.7822C21.3337 9.76253 21.5798 9.82407 21.8058 9.96677C22.7813 10.9424 23.7569 11.9179 24.7325 12.8935C24.9786 13.2802 24.9786 13.667 24.7325 14.0537C23.7569 15.0293 22.7813 16.0049 21.8058 16.9804C21.3941 17.2191 20.9898 17.2016 20.5929 16.9277C20.225 16.4954 20.1811 16.0296 20.461 15.5302C20.8214 15.1699 21.1817 14.8095 21.5421 14.4492C19.4327 14.4316 17.3233 14.414 15.214 14.3965C14.5837 14.1243 14.3815 13.6585 14.6075 12.999C14.751 12.7326 14.9707 12.5656 15.2667 12.498C17.3585 12.4805 19.4503 12.4628 21.5421 12.4453C21.1641 12.0673 20.7862 11.6894 20.4083 11.3115C20.1128 10.5675 20.3325 10.0577 21.0675 9.7822Z" fill="#4C4B16"/>
</g>
<defs>
<clipPath id="clip0_174_267">
<rect width="27" height="27" fill="white"/>
</clipPath>
</defs>
</svg>
